<svg width="32" height="32" viewBox="0 0 32 32" fill="none" xmlns="http://www.w3.org/2000/svg">
<mask id="mask0_1797_2741" style="mask-type:alpha" maskUnits="userSpaceOnUse" x="0" y="0" width="32" height="32">
<rect width="32" height="32" fill="#D9D9D9"/>
</mask>
<g mask="url(#mask0_1797_2741)">
<path d="M23.9993 24.077C24.5549 24.077 25.0271 23.8825 25.416 23.4936C25.8049 23.1048 25.9993 22.6325 25.9993 22.077C25.9993 21.5214 25.8049 21.0492 25.416 20.6603C25.0271 20.2714 24.5549 20.077 23.9993 20.077C23.4438 20.077 22.9715 20.2714 22.5827 20.6603C22.1938 21.0492 21.9993 21.5214 21.9993 22.077C21.9993 22.6325 22.1938 23.1048 22.5827 23.4936C22.9715 23.8825 23.4438 24.077 23.9993 24.077ZM23.9993 28.077C24.666 28.077 25.2882 27.9214 25.866 27.6103C26.4438 27.2992 26.9215 26.8659 27.2993 26.3103C26.7882 25.9992 26.2549 25.7714 25.6993 25.627C25.1438 25.4825 24.5771 25.4103 23.9993 25.4103C23.4215 25.4103 22.8549 25.4825 22.2993 25.627C21.7438 25.7714 21.2104 25.9992 20.6993 26.3103C21.0771 26.8659 21.5549 27.2992 22.1327 27.6103C22.7104 27.9214 23.3327 28.077 23.9993 28.077ZM7.07628 27.3334C6.41133 27.3334 5.84338 27.0979 5.37245 26.6269C4.90149 26.156 4.66602 25.588 4.66602 24.9231V7.07702C4.66602 6.41206 4.90149 5.84411 5.37245 5.37318C5.84338 4.90223 6.41133 4.66675 7.07628 4.66675H24.9223C25.5873 4.66675 26.1553 4.90223 26.6262 5.37318C27.0971 5.84411 27.3326 6.41206 27.3326 7.07702V15.5103C27.0044 15.3701 26.6758 15.2513 26.3467 15.1539C26.0177 15.0565 25.6797 14.9787 25.3327 14.9206V7.07702C25.3327 6.97444 25.2899 6.8804 25.2044 6.79492C25.119 6.70945 25.0249 6.66672 24.9223 6.66672H7.07628C6.9737 6.66672 6.87967 6.70945 6.79418 6.79492C6.70872 6.8804 6.66598 6.97444 6.66598 7.07702V24.9231C6.66598 25.0257 6.70872 25.1197 6.79418 25.2052C6.87967 25.2906 6.9737 25.3334 7.07628 25.3334H14.8865C14.9361 25.7026 15.0096 26.0517 15.107 26.3808C15.2044 26.7099 15.3232 27.0274 15.4634 27.3334H7.07628ZM6.66598 25.3334V6.66672V14.9206V14.8206V25.3334ZM9.66602 22.1795H15.0224C15.0805 21.8325 15.1668 21.4945 15.2814 21.1654C15.3959 20.8364 15.5207 20.5077 15.6557 20.1795H9.66602V22.1795ZM9.66602 17H18.1199C18.6942 16.5129 19.307 16.1047 19.9583 15.7757C20.6095 15.4466 21.307 15.2129 22.0506 15.0744V15.0001H9.66602V17ZM9.66602 11.8205H22.3326V9.82058H9.66602V11.8205ZM23.9993 30.0769C22.3344 30.0769 20.9181 29.4932 19.7506 28.3257C18.5831 27.1581 17.9993 25.7419 17.9993 24.077C17.9993 22.412 18.5831 20.9958 19.7506 19.8283C20.9181 18.6608 22.3344 18.077 23.9993 18.077C25.6643 18.077 27.0805 18.6608 28.248 19.8283C29.4155 20.9958 29.9993 22.412 29.9993 24.077C29.9993 25.7419 29.4155 27.1581 28.248 28.3257C27.0805 29.4932 25.6643 30.0769 23.9993 30.0769Z" fill="#0561A0"/>
</g>
</svg>
