<svg xmlns="http://www.w3.org/2000/svg" width="32" height="32" viewBox="0 0 32 32" fill="none">
<mask id="mask0_1797_2768" style="mask-type:alpha" maskUnits="userSpaceOnUse" x="0" y="0" width="32" height="32">
<rect width="32" height="32" fill="#D9D9D9"/>
</mask>
<g mask="url(#mask0_1797_2768)">
<path d="M7.07628 28.6668C6.40277 28.6668 5.83268 28.4335 5.36602 27.9668C4.89935 27.5001 4.66602 26.93 4.66602 26.2565V8.41045C4.66602 7.73694 4.89935 7.16685 5.36602 6.70019C5.83268 6.23352 6.40277 6.00019 7.07628 6.00019H8.92245V3.17969H10.9737V6.00019H21.0762V3.17969H23.0762V6.00019H24.9223C25.5959 6.00019 26.166 6.23352 26.6326 6.70019C27.0993 7.16685 27.3326 7.73694 27.3326 8.41045V26.2565C27.3326 26.93 27.0993 27.5001 26.6326 27.9668C26.166 28.4335 25.5959 28.6668 24.9223 28.6668H7.07628ZM7.07628 26.6668H24.9223C25.0249 26.6668 25.119 26.6241 25.2044 26.5386C25.2899 26.4531 25.3327 26.3591 25.3327 26.2565V13.7438H6.66598V26.2565C6.66598 26.3591 6.70872 26.4531 6.79418 26.5386C6.87967 26.6241 6.9737 26.6668 7.07628 26.6668ZM6.66598 11.7438H25.3327V8.41045C25.3327 8.30788 25.2899 8.21384 25.2044 8.12835C25.119 8.04289 25.0249 8.00015 24.9223 8.00015H7.07628C6.9737 8.00015 6.87967 8.04289 6.79418 8.12835C6.70872 8.21384 6.66598 8.30788 6.66598 8.41045V11.7438ZM15.9993 18.7694C15.6728 18.7694 15.3946 18.6544 15.1647 18.4245C14.9348 18.1946 14.8198 17.9164 14.8198 17.5899C14.8198 17.2634 14.9348 16.9852 15.1647 16.7553C15.3946 16.5254 15.6728 16.4105 15.9993 16.4105C16.3258 16.4105 16.604 16.5254 16.8339 16.7553C17.0638 16.9852 17.1788 17.2634 17.1788 17.5899C17.1788 17.9164 17.0638 18.1946 16.8339 18.4245C16.604 18.6544 16.3258 18.7694 15.9993 18.7694ZM10.666 18.7694C10.3395 18.7694 10.0613 18.6544 9.83138 18.4245C9.60147 18.1946 9.48652 17.9164 9.48652 17.5899C9.48652 17.2634 9.60147 16.9852 9.83138 16.7553C10.0613 16.5254 10.3395 16.4105 10.666 16.4105C10.9925 16.4105 11.2707 16.5254 11.5006 16.7553C11.7305 16.9852 11.8454 17.2634 11.8454 17.5899C11.8454 17.9164 11.7305 18.1946 11.5006 18.4245C11.2707 18.6544 10.9925 18.7694 10.666 18.7694ZM21.3327 18.7694C21.0062 18.7694 20.728 18.6544 20.498 18.4245C20.2681 18.1946 20.1532 17.9164 20.1532 17.5899C20.1532 17.2634 20.2681 16.9852 20.498 16.7553C20.728 16.5254 21.0062 16.4105 21.3327 16.4105C21.6591 16.4105 21.9373 16.5254 22.1673 16.7553C22.3972 16.9852 22.5121 17.2634 22.5121 17.5899C22.5121 17.9164 22.3972 18.1946 22.1673 18.4245C21.9373 18.6544 21.6591 18.7694 21.3327 18.7694ZM15.9993 24.0002C15.6728 24.0002 15.3946 23.8852 15.1647 23.6553C14.9348 23.4254 14.8198 23.1472 14.8198 22.8207C14.8198 22.4942 14.9348 22.216 15.1647 21.9861C15.3946 21.7562 15.6728 21.6412 15.9993 21.6412C16.3258 21.6412 16.604 21.7562 16.8339 21.9861C17.0638 22.216 17.1788 22.4942 17.1788 22.8207C17.1788 23.1472 17.0638 23.4254 16.8339 23.6553C16.604 23.8852 16.3258 24.0002 15.9993 24.0002ZM10.666 24.0002C10.3395 24.0002 10.0613 23.8852 9.83138 23.6553C9.60147 23.4254 9.48652 23.1472 9.48652 22.8207C9.48652 22.4942 9.60147 22.216 9.83138 21.9861C10.0613 21.7562 10.3395 21.6412 10.666 21.6412C10.9925 21.6412 11.2707 21.7562 11.5006 21.9861C11.7305 22.216 11.8454 22.4942 11.8454 22.8207C11.8454 23.1472 11.7305 23.4254 11.5006 23.6553C11.2707 23.8852 10.9925 24.0002 10.666 24.0002ZM21.3327 24.0002C21.0062 24.0002 20.728 23.8852 20.498 23.6553C20.2681 23.4254 20.1532 23.1472 20.1532 22.8207C20.1532 22.4942 20.2681 22.216 20.498 21.9861C20.728 21.7562 21.0062 21.6412 21.3327 21.6412C21.6591 21.6412 21.9373 21.7562 22.1673 21.9861C22.3972 22.216 22.5121 22.4942 22.5121 22.8207C22.5121 23.1472 22.3972 23.4254 22.1673 23.6553C21.9373 23.8852 21.6591 24.0002 21.3327 24.0002Z" fill="#0561A0"/>
</g>
</svg>
