<svg width="32" height="32" viewBox="0 0 32 32" fill="none" xmlns="http://www.w3.org/2000/svg">
<mask id="mask0_1797_2738" style="mask-type:alpha" maskUnits="userSpaceOnUse" x="0" y="0" width="32" height="32">
<rect width="32" height="32" fill="#D9D9D9"/>
</mask>
<g mask="url(#mask0_1797_2738)">
<path d="M16 15.5896C14.7167 15.5896 13.6181 15.1326 12.7042 14.2188C11.7903 13.3049 11.3333 12.2063 11.3333 10.923C11.3333 9.63965 11.7903 8.54105 12.7042 7.62718C13.6181 6.71329 14.7167 6.25635 16 6.25635C17.2833 6.25635 18.3819 6.71329 19.2958 7.62718C20.2097 8.54105 20.6666 9.63965 20.6666 10.923C20.6666 12.2063 20.2097 13.3049 19.2958 14.2188C18.3819 15.1326 17.2833 15.5896 16 15.5896ZM6 25.7434V22.7794C6 22.1264 6.17736 21.5217 6.53207 20.9653C6.88676 20.4089 7.36068 19.9811 7.95383 19.6819C9.27179 19.0358 10.6013 18.5512 11.9423 18.2281C13.2833 17.905 14.6359 17.7435 16 17.7435C17.3641 17.7435 18.7166 17.905 20.0576 18.2281C21.3987 18.5512 22.7281 19.0358 24.0461 19.6819C24.6393 19.9811 25.1132 20.4089 25.4679 20.9653C25.8226 21.5217 25.9999 22.1264 25.9999 22.7794V25.7434H6ZM7.99997 23.7435H24V22.7794C24 22.5093 23.9218 22.2593 23.7653 22.0293C23.6089 21.7994 23.3965 21.6118 23.1282 21.4665C21.9795 20.9007 20.8081 20.4721 19.6142 20.1806C18.4203 19.8892 17.2156 19.7434 16 19.7434C14.7844 19.7434 13.5796 19.8892 12.3857 20.1806C11.1918 20.4721 10.0205 20.9007 8.87177 21.4665C8.60339 21.6118 8.391 21.7994 8.2346 22.0293C8.07818 22.2593 7.99997 22.5093 7.99997 22.7794V23.7435ZM16 13.5896C16.7333 13.5896 17.3611 13.3285 17.8833 12.8063C18.4055 12.2841 18.6666 11.6563 18.6666 10.923C18.6666 10.1896 18.4055 9.56187 17.8833 9.03965C17.3611 8.51743 16.7333 8.25632 16 8.25632C15.2666 8.25632 14.6389 8.51743 14.1166 9.03965C13.5944 9.56187 13.3333 10.1896 13.3333 10.923C13.3333 11.6563 13.5944 12.2841 14.1166 12.8063C14.6389 13.3285 15.2666 13.5896 16 13.5896Z" fill="#0561A0"/>
</g>
</svg>
