<svg width="32" height="32" viewBox="0 0 32 32" fill="none" xmlns="http://www.w3.org/2000/svg">
<mask id="mask0_1797_500" style="mask-type:alpha" maskUnits="userSpaceOnUse" x="0" y="0" width="32" height="32">
<rect width="32" height="32" fill="#D9D9D9"/>
</mask>
<g mask="url(#mask0_1797_500)">
<path d="M7.07628 27.3333C6.41133 27.3333 5.84338 27.0978 5.37245 26.6268C4.90149 26.1559 4.66602 25.588 4.66602 24.923V7.07693C4.66602 6.41198 4.90149 5.84403 5.37245 5.3731C5.84338 4.90214 6.41133 4.66667 7.07628 4.66667H13.0096C13.0934 3.92651 13.4164 3.29703 13.9788 2.77823C14.5412 2.25941 15.2147 2 15.9993 2C16.7925 2 17.4702 2.25941 18.0326 2.77823C18.595 3.29703 18.9138 3.92651 18.989 4.66667H24.9223C25.5873 4.66667 26.1553 4.90214 26.6262 5.3731C27.0971 5.84403 27.3326 6.41198 27.3326 7.07693V15.5102C27.0044 15.37 26.6758 15.2513 26.3467 15.1538C26.0177 15.0564 25.6797 14.9786 25.3327 14.9205V7.07693C25.3327 6.97436 25.2899 6.88032 25.2044 6.79483C25.119 6.70937 25.0249 6.66663 24.9223 6.66663H7.07628C6.9737 6.66663 6.87967 6.70937 6.79418 6.79483C6.70872 6.88032 6.66598 6.97436 6.66598 7.07693V24.923C6.66598 25.0256 6.70872 25.1196 6.79418 25.2051C6.87967 25.2906 6.9737 25.3333 7.07628 25.3333H14.8865C14.9361 25.7025 15.0096 26.0517 15.107 26.3807C15.2044 26.7098 15.3232 27.0273 15.4634 27.3333H7.07628ZM6.66598 25.3333V6.66663V14.9205V14.8205V25.3333ZM9.66602 22.1794H15.0224C15.0805 21.8324 15.1668 21.4944 15.2814 21.1653C15.3959 20.8363 15.5207 20.5077 15.6557 20.1795H9.66602V22.1794ZM9.66602 16.9999H18.1199C18.6942 16.5128 19.307 16.1047 19.9583 15.7756C20.6095 15.4466 21.307 15.2128 22.0506 15.0743V15H9.66602V16.9999ZM9.66602 11.8205H22.3326V9.8205H9.66602V11.8205ZM15.9993 5.79483C16.2882 5.79483 16.5271 5.70039 16.716 5.5115C16.9049 5.32261 16.9993 5.08372 16.9993 4.79483C16.9993 4.50594 16.9049 4.26706 16.716 4.07817C16.5271 3.88928 16.2882 3.79483 15.9993 3.79483C15.7104 3.79483 15.4715 3.88928 15.2826 4.07817C15.0938 4.26706 14.9993 4.50594 14.9993 4.79483C14.9993 5.08372 15.0938 5.32261 15.2826 5.5115C15.4715 5.70039 15.7104 5.79483 15.9993 5.79483ZM23.9993 30.0768C22.3344 30.0768 20.9181 29.4931 19.7506 28.3256C18.5831 27.1581 17.9993 25.7418 17.9993 24.0769C17.9993 22.4119 18.5831 20.9957 19.7506 19.8282C20.9181 18.6607 22.3344 18.0769 23.9993 18.0769C25.6643 18.0769 27.0805 18.6607 28.248 19.8282C29.4155 20.9957 29.9993 22.4119 29.9993 24.0769C29.9993 25.7418 29.4155 27.1581 28.248 28.3256C27.0805 29.4931 25.6643 30.0768 23.9993 30.0768ZM23.4096 28H24.5891V24.6666H27.9224V23.4872H24.5891V20.1538H23.4096V23.4872H20.0762V24.6666H23.4096V28Z" fill="#0561A0"/>
</g>
</svg>
